<svg width="20" height="21" viewBox="0 0 20 21" fill="none" xmlns="http://www.w3.org/2000/svg">
<path d="M10.8333 13.5833H2.49996C2.27895 13.5833 2.06698 13.6711 1.9107 13.8274C1.75442 13.9837 1.66663 14.1957 1.66663 14.4167C1.66663 14.6377 1.75442 14.8496 1.9107 15.0059C2.06698 15.1622 2.27895 15.25 2.49996 15.25H10.8333C11.0543 15.25 11.2663 15.1622 11.4225 15.0059C11.5788 14.8496 11.6666 14.6377 11.6666 14.4167C11.6666 14.1957 11.5788 13.9837 11.4225 13.8274C11.2663 13.6711 11.0543 13.5833 10.8333 13.5833ZM2.49996 6.91667H17.5C17.721 6.91667 17.9329 6.82887 18.0892 6.67259C18.2455 6.51631 18.3333 6.30435 18.3333 6.08333C18.3333 5.86232 18.2455 5.65036 18.0892 5.49408C17.9329 5.3378 17.721 5.25 17.5 5.25H2.49996C2.27895 5.25 2.06698 5.3378 1.9107 5.49408C1.75442 5.65036 1.66663 5.86232 1.66663 6.08333C1.66663 6.30435 1.75442 6.51631 1.9107 6.67259C2.06698 6.82887 2.27895 6.91667 2.49996 6.91667V6.91667ZM17.5 9.41667H2.49996C2.27895 9.41667 2.06698 9.50446 1.9107 9.66074C1.75442 9.81702 1.66663 10.029 1.66663 10.25C1.66663 10.471 1.75442 10.683 1.9107 10.8393C2.06698 10.9955 2.27895 11.0833 2.49996 11.0833H17.5C17.721 11.0833 17.9329 10.9955 18.0892 10.8393C18.2455 10.683 18.3333 10.471 18.3333 10.25C18.3333 10.029 18.2455 9.81702 18.0892 9.66074C17.9329 9.50446 17.721 9.41667 17.5 9.41667Z" fill="black"/>
</svg>
